<svg xmlns="http://www.w3.org/2000/svg" viewBox="0 0 232.23 63.8"><defs><style>.cls-1,.cls-10,.cls-9{fill:#7fa7b8;}.cls-1{stroke:#7fa7b8;}.cls-1,.cls-2,.cls-3,.cls-4,.cls-5{stroke-miterlimit:10;}.cls-2{fill:#f7efed;stroke:#f7efed;}.cls-3,.cls-6{fill:#33546d;}.cls-3{stroke:#33546d;}.cls-11,.cls-4{fill:#f1485b;}.cls-4,.cls-5{stroke:#f1485b;}.cls-5{fill:#fff;stroke-width:2px;}.cls-6{font-size:17.47px;font-family:AquireBold, Aquire;}.cls-7{letter-spacing:-0.07em;}.cls-8{letter-spacing:-0.01em;}.cls-9{letter-spacing:-0.05em;}.cls-10{letter-spacing:0em;}.cls-12{letter-spacing:-0.04em;}.cls-13{letter-spacing:-0.02em;}.cls-14{letter-spacing:-0.23em;}</style></defs><g id="Layer_1" data-name="Layer 1"><rect class="cls-1" x="0.5" y="0.5" width="73.04" height="45.65" rx="2.76"/><rect class="cls-2" x="3.76" y="3.76" width="67.17" height="39.13"/><polygon class="cls-1" points="48.73 63.3 25.43 63.3 30.64 48.85 42.66 48.85 48.73 63.3"/><rect class="cls-3" x="5.43" y="5.43" width="63.91" height="35.87"/><rect class="cls-4" x="42.7" y="45.35" width="1.92" height="16.7" transform="matrix(-1, -0.01, 0.01, -1, 80.34, 85.54)"/><ellipse class="cls-5" cx="37.52" cy="19.59" rx="3.27" ry="3.21"/><rect class="cls-4" x="28.34" y="36.15" width="1.98" height="25.91" transform="translate(51.71 76.18) rotate(-179.4)"/><ellipse class="cls-5" cx="23.17" cy="10.61" rx="3.27" ry="3.21"/><rect class="cls-4" x="56.16" y="53.08" width="1.92" height="8.99" transform="translate(107.21 93.42) rotate(-179.4)"/><ellipse class="cls-5" cx="50.92" cy="27.87" rx="3.27" ry="3.21"/><text class="cls-6" transform="translate(78.78 18.44)">N<tspan class="cls-7" x="11.1" y="0">e</tspan><tspan x="22" y="0">x</tspan><tspan class="cls-8" x="35.58" y="0">u</tspan><tspan x="47.53" y="0">s</tspan><tspan class="cls-9" x="59.66" y="0">p</tspan><tspan class="cls-10" x="69.9" y="0">oint</tspan><tspan class="cls-11"><tspan x="0" y="20.97">C</tspan><tspan class="cls-12" x="13.28" y="20.97">r</tspan><tspan class="cls-13" x="25.43" y="20.97">e</tspan><tspan class="cls-14" x="37.1" y="20.97">a</tspan><tspan x="48.21" y="20.97">tions </tspan></tspan></text></g></svg>