<svg id="Layer_1" data-name="Layer 1" xmlns="http://www.w3.org/2000/svg" viewBox="0 0 292.75 356.67"><defs><style>.cls-1{fill:#f2818d;}</style></defs><path class="cls-1" d="M51.86,219.88c13.44,29.58-11.94,45.37,28.52,90.19l-5,5.48,27.51,15a69.78,69.78,0,0,0,10.62,5.79h0l-3,10.92,40.86,28.37L199,344.87l-9.61-6.73L228.12,317l-10.44-12.31a42.59,42.59,0,0,0,3.39-4c9.61-13.46,26.44-22.11,16.82-69.22-3.84-30.28,13-44.7,9.62-74s-20.19-48.55-14.91-65.85-26-70.67-94.7-68.27c-8.51.3-31.24-5.28-43.26,7.7S59.07,53.56,60,74.71s-14.9,27.88-12,46.15S20.61,167.49,51.86,219.88ZM224.91,180c-7.21,24-15.86,21-15.86,21-3.9,21.53-17.94,40.66-29.82,52,1.07,6.3,2.79,13.83,5.3,17.82,4.81,7.65,15.87,13.51,15.87,13.51l6.88,8.12h0l-6.88-8.12c-7.7,38-49,82.2-49,82.2-18.26-19.23-47.59-82.2-47.59-82.2s9.14-3.85,14.42-10.58c2.27-2.88,3.3-7.26,3.74-11.33-5.72-3.94-12-9.48-20.56-17.51-13.62-12.82-21.08-32.7-23.19-39,.8.91,1.63,1.8,2.52,2.69A19.73,19.73,0,0,1,77.56,204v-.05h0c-2.36-4.63-4.63-12.6-1.16-23.44,5.77-18-5-24.52,5.77-35.34s22.35-22.35,21.63-41.1,18-24.51,18-24.51c9.37,2.16,14.59,34.29,53.36,38.21,25.6,2.6,29.56,5.65,28.12,13.58s-7.21,18.87,2.16,36.18-1.44,41.1-1.44,41.1,13.7-16.59,12.26-35.33,5.05-26.68,9.37-18.75c.71,1.29,1.47,1.1,2.16-.22C228.5,160.27,228.26,168.83,224.91,180ZM67.18,155.18c.35,2.18.54,5.84.54,13.75,0,17.35,2.78,26.81,8.35,34.34-4.14-2.05-15.78-9.49-18.93-29.53C54.41,156.33,62.35,154.68,67.18,155.18Z" transform="translate(-3.79 -22.33)"/><path class="cls-1" d="M53.3,304C13.4,320.35,3.79,379,3.79,379H64Z" transform="translate(-3.79 -22.33)"/><path class="cls-1" d="M249.91,304s-9.62,62.49-10.58,75h57.21S287.4,320.35,249.91,304Z" transform="translate(-3.79 -22.33)"/></svg>