<svg id="Layer_1" data-name="Layer 1" xmlns="http://www.w3.org/2000/svg" viewBox="0 0 293.29 330.93"><defs><style>.cls-1{fill:#1f4278;}</style></defs><path class="cls-1" d="M164.37,277.23c2.76-.6,6.92-4,11.58-8.81,11.89-12.28,27-33.78,30.5-41.46,1.9-4.16,2.94-9.91,3.47-16.15.83-9.76.41-20.74,0-28.86-.7-13.31,2.1-19.94,7.71-17.32a29.18,29.18,0,0,1,8.65,6.31c.29.31.45.51.45.51s6.31-18.92,0-52.54S207.1,41.15,134.25,45.35c-26.58,1.54-69.36,14-75.66,53.24-4.17,25.92-5.27,45.11-5.34,58.38,0,6.82.2,12.07.43,15.88,2.11,5.6,2.84-10.84,12.61-8.22s4.21,20.83,5.61,29.23c.54,3.28,1,8.9,1.78,15.08,1.23,9.66,3.32,20.7,8,26.25,6.37,7.54,23.27,28.47,34.48,37.87a27.87,27.87,0,0,0,6.15,4.17C132.14,281.43,154.56,279.33,164.37,277.23Zm-42.5-41.8c.47-6.07,8-15.31,19.51-14.48,13,.93,16.92,2.34,22.05,9.81s1.87,13.54-3.73,14-9.34-1.87-10.74-7.47-6.08-5.14-11.21-2.34-.94,9.81-8.88,9.81S121.4,241.5,121.87,235.43Zm-22.65-8.64c-11.91-2.1-22.42-28-23.12-38.53,1.4-15.41-4.2-64.45,5.61-71.45s18.21,0,42.73,3.5,34.32-14.71,48.33-17.51,7.71,7,7.71,7c28.78-4.61,24.52,27.32,22.42,44.83s4.2,28,3.5,38.53-7.71,25.92-17.51,30.83-10.51-8.41-18.92-13.31-36.43-3.51-49-1.4S111.13,228.89,99.22,226.79Z" transform="translate(-3.71 -45.07)"/><path class="cls-1" d="M183.52,279.65s.29.15.75.43c2,1.22,7.26,5,3.45,10-4.67,6.07-24.3,17.28-30.83,19.15l-6.53,1.86-6.54-1.86c-6.53-1.87-26.15-13.08-30.82-19.15-3.56-4.62.73-8.24,3-9.71a13.12,13.12,0,0,1,1.22-.71c-19.62,3.6-83.13,20.23-93.87,34.7S3.71,376,3.71,376H297s-8.87-47.17-19.61-61.65S203.13,283.25,183.52,279.65Z" transform="translate(-3.71 -45.07)"/></svg>