<svg id="Layer_1" data-name="Layer 1" xmlns="http://www.w3.org/2000/svg" viewBox="0 0 294.61 359.24"><defs><style>.cls-1{fill:#404658;}</style></defs><path class="cls-1" d="M297,372.5s-6-39.83-17.29-58.62-16.53-15-29.89-18c-10.83-2.44-42.21-10.3-58.13-16.4h0c-13.83,37.9-41.25,66-41.25,66L127.9,315c-11.94-16.12-17.31-28-19.76-35.73-15.77,6.12-47.64,14.11-58.57,16.57-13.36,3-18.62-.76-29.89,18S2.39,372.5,2.39,372.5l147.3,3.76Z" transform="translate(-2.39 -17.02)"/><path class="cls-1" d="M55.75,150c14.28-2.25,9,23.3,9,23.3C70,162.07,72.28,148.54,70,126s12.78-27.8,12.78-27.8C100.09,127.5,146.69,138,146.69,138c-7.52-6.76-9.77-18.79-9.77-18.79,17.28,18.79,29.31,17.29,29.31,17.29-9.77-9.77-9-17.29-9-17.29C191,152.3,208.32,126,207.56,141.78c0,23.3,4.51,31.56,4.51,31.56,7.52-15-.75-21,9.77-26.3s9.77,11.27,9.77,11.27a51.29,51.29,0,0,0,1.85-6.52c1.75-7.69,3.84-22.06,1.91-42.33-3-31.57-18.79-53.36-39.08-66.89s-33.07-15-33.07-15C179,23,173.74,17,173.74,17c-10.52,10.52-49.6,0-90.93,17.28S45.23,110.21,46,129c.62,15.44-2.82,21.24,3.87,21.56A30.08,30.08,0,0,0,55.75,150Z" transform="translate(-2.39 -17.02)"/></svg>