<svg id="Layer_1" data-name="Layer 1" xmlns="http://www.w3.org/2000/svg" viewBox="0 0 293.68 348.09"><defs><style>.cls-1{fill:#ffd477;}</style></defs><path class="cls-1" d="M49,163.57c.62-3.63,2.15-10.3,7.89-12.51,9.64-3.7,6.67,14.84,9.64,28.19s8.9,19.28,8.9,19.28-2.23-22.25-3-43S60.63,101.38,84.37,88.77s40.79-11.13,59.33-10.38S192.64,80.61,201.54,94s8.16,69,5.19,92c0,0,7.42-13.35,8.16-27.44s15.57-5.93,16.32,5.93c0,0,8.15-38.56,0-71.93S194.87,35.37,143.7,30.92c0,0-48.95-8.9-78.62,26s-19.28,89-17,107.53C48.63,167.12,48.62,166.05,49,163.57Z" transform="translate(-2.79 -29.91)"/><path class="cls-1" d="M179.35,256.94a8.67,8.67,0,0,1-.95.75c-2.39,1.68-9.2,5.12-21.36,1.65-15.57-4.45-4.07-18.95-17.39-18.75-6.34.1-1.89,9.11-12.27,16.53s-24.47-3-24.47-3c.06.17.13.35.2.52,2.74,7.11,9.88,14.8,18.14,19.1a28.27,28.27,0,0,0,11.32,3.37c12.61.74,20.77-.74,33.37-5.93a24.71,24.71,0,0,0,10-7,15.11,15.11,0,0,0,3.49-7.29h0Z" transform="translate(-2.79 -29.91)"/><path class="cls-1" d="M146.66,314.22c-20.36-.56-32.08-17.94-36.51-26.16-1.37-2.56-2.05-4.25-2.05-4.25L88.82,289c5.93,17.05,28.92,51.17,60.81,49.68s61.55-51.17,61.55-51.17l-20-3.71S173.36,315,146.66,314.22Z" transform="translate(-2.79 -29.91)"/><path class="cls-1" d="M276.45,319.41c-8.16-17.8-45.24-22.25-53.4-26.7,0,0-33.37,61.56-77.13,57.11s-66.74-57.11-66.74-57.11S54.7,303.1,36.9,304.58,7.24,346.11,2.79,378H296.47S284.6,337.21,276.45,319.41Z" transform="translate(-2.79 -29.91)"/></svg>