<svg id="Layer_1" data-name="Layer 1" xmlns="http://www.w3.org/2000/svg" viewBox="0 0 289.62 349.97"><defs><style>.cls-1{fill:#4e2a4e;}</style></defs><path class="cls-1" d="M96,279.54l15-5.86,7.16-4.78c3.7-2.46,4.6-9.1,4.6-15-10.83-8.08-35-28-41.39-41.9,6.69,6.69-16.31-56.78,3.76-90.23s40.68-54.09,74.13-54.09c3.85,0,9.08,42.53,47.79,48.74,7.17,4.78,1.43,41.1,0,56.87s3.34-32.49,14.33-27.24c1.33.63,2.33-.08,3-1.84a57,57,0,0,1,1.07,21.91c-2.64,16.73-14.11,24.37-14.11,24.37s-7.17,24.85-18.16,36.8c-5.35,5.81-11.38,12.19-17.48,17.82.47,6.52,2,14.09,6,19.45s13.76,10.73,22.73,14.73c-7.54,21.73-25,71-32.73,84.67H295s.38-68.65-64.05-90c-1.09-36.81-2.38-99.89.94-119.77,4.78-28.68,7.64-145.28-90.8-140-15.75.84-60.21,1-86.49,48.74-23.53,42.77-8.77,174.73-8.16,222.17C5.09,312.85,5.38,364,5.38,364H128.67C120.94,350.39,103.59,301.38,96,279.54Z" transform="translate(-5.38 -14.03)"/></svg>