<svg id="Layer_1" data-name="Layer 1" xmlns="http://www.w3.org/2000/svg" viewBox="0 0 224.87 362.54"><defs><style>.cls-1{fill:#91c77b;}</style></defs><path class="cls-1" d="M130.2,256.08c-8.61-5.14-17.93-12.72-28.6-22.8-17.91-16.92-21.89-51.73-21.89-51.73s1,12.93-9.94,8.83c-13.93-9.08-5.94-28.73-5.94-28.73S95.63,128.82,110.55,95s52.72-33.82,52.72-33.82L199.08,92,220,150.33c10.31-11.7,22.87-3.6,15.91,17.29S219,194.48,219,194.48c-5,14.92-15.92,32.83-28.85,50.73a53,53,0,0,1-6.86,7.84c2.56,11,9.45,19.93,22.77,26.84h0c17.79-1.64,38.39-6.86,44.77-21.76,0,0-34.68-1-25.3-21.88s43.21-47.75,25.3-109.42-4-112.41-73.61-107.44c0,0-26.86-18.9-75.6,0S44.9,85.92,44.9,117.32s1,60.25-7,67.21h10s13.93,39.79,30.84,51.73c9,9,6,29.84-14.89,30.84,0,0,7.2,12.74,19.84,19.08,13.15-3.83,25.59-7.18,31.85-9.13C124.66,274.19,128.55,264.13,130.2,256.08Z" transform="translate(-37.93 -11)"/><path class="cls-1" d="M159.29,359.61c-63.31.8-84.88-43.27-92-68.46-6.42,2-12.43,4.11-17.36,6.08C57.23,314,67.37,343.42,64.8,373.54H239.91c3.23-18.81,10.54-53.78,22.89-75.31a240.68,240.68,0,0,0-23.24-7l-3.41-.87h0C231.67,315,215.78,358.9,159.29,359.61Z" transform="translate(-37.93 -11)"/></svg>